<svg width="10" height="6" viewBox="0 0 10 6" fill="none" xmlns="http://www.w3.org/2000/svg">
<path d="M0.236151 6V0.181818H2.53161C2.971 0.181818 3.346 0.260417 3.65661 0.417614C3.96911 0.572917 4.20679 0.793561 4.36967 1.07955C4.53445 1.36364 4.61683 1.69792 4.61683 2.08239C4.61683 2.46875 4.5335 2.80114 4.36683 3.07955C4.20017 3.35606 3.95869 3.56818 3.6424 3.71591C3.32801 3.86364 2.94732 3.9375 2.50036 3.9375H0.963423V2.94886H2.30149C2.53634 2.94886 2.73142 2.91667 2.88672 2.85227C3.04202 2.78788 3.15755 2.69129 3.23331 2.5625C3.31096 2.43371 3.34979 2.27367 3.34979 2.08239C3.34979 1.8892 3.31096 1.72633 3.23331 1.59375C3.15755 1.46117 3.04107 1.3608 2.88388 1.29261C2.72857 1.22254 2.53255 1.1875 2.29581 1.1875H1.46626V6H0.236151ZM3.3782 3.35227L4.82422 6H3.46626L2.05149 3.35227H3.3782ZM5.48615 6V0.181818H7.8157C8.24373 0.181818 8.60073 0.245265 8.88672 0.372159C9.1727 0.499053 9.38767 0.675189 9.53161 0.900568C9.67554 1.12405 9.74751 1.38163 9.74751 1.6733C9.74751 1.90057 9.70206 2.10038 9.61115 2.27273C9.52024 2.44318 9.39524 2.58333 9.23615 2.69318C9.07895 2.80114 8.89903 2.87784 8.69638 2.9233V2.98011C8.91797 2.98958 9.12536 3.05208 9.31854 3.16761C9.51361 3.28314 9.67176 3.44508 9.79297 3.65341C9.91418 3.85985 9.97479 4.10606 9.97479 4.39205C9.97479 4.70076 9.89808 4.97633 9.74467 5.21875C9.59316 5.45928 9.36873 5.64962 9.07138 5.78977C8.77403 5.92992 8.40755 6 7.97195 6H5.48615ZM6.71626 4.99432H7.71911C8.06191 4.99432 8.31191 4.92898 8.46911 4.7983C8.6263 4.66572 8.7049 4.48958 8.7049 4.26989C8.7049 4.1089 8.66607 3.96686 8.58842 3.84375C8.51077 3.72064 8.39998 3.62405 8.25604 3.55398C8.11399 3.4839 7.94448 3.44886 7.74751 3.44886H6.71626V4.99432ZM6.71626 2.61648H7.6282C7.79676 2.61648 7.94638 2.58712 8.07706 2.52841C8.20964 2.4678 8.3138 2.38258 8.38956 2.27273C8.46721 2.16288 8.50604 2.03125 8.50604 1.87784C8.50604 1.66761 8.43123 1.49811 8.28161 1.36932C8.13388 1.24053 7.92365 1.17614 7.65092 1.17614H6.71626V2.61648Z" fill="#F7750A"/>
</svg>
